<svg id="Capa_1" enable-background="new 0 0 512 512" height="512" viewBox="0 0 512 512" width="512" fill="#FCA702"  xmlns="http://www.w3.org/2000/svg"><g><path d="m262.5 404.702v-90.779l81.053 44.353 36.311-66.356 88.932 48.665 43.204-78.952-62.738-34.331 28.832-52.689-319.093-174.613-28.926 52.86c-35.983-21.336-82.881-7.054-102.756 29.265-9.568 17.484-11.986 37.552-6.81 56.507 5.23 19.152 17.564 34.872 34.729 44.265l35.208 19.266-7.415 13.551 89.47 48.96v95.029h-81.586v-62.298h-90.915v214.595h90.915v-62.298h126.585c24.813 0 45-20.186 45-45zm-91.583-363.983 266.458 145.81-14.401 26.317-59.066-32.321-80.56 24.312-155.634-85.167zm-101.278 115.86c-9.955-5.446-17.125-14.628-20.19-25.852-3.119-11.421-1.632-23.567 4.187-34.202 12.467-22.783 40.073-29.053 62.038-17.348l-28.679 52.409 32.377 17.717-14.525 26.543zm-8.724 325.421h-30.915v-154.596h30.915zm111.585-77.298c0 5.259.915 10.305 2.58 15h-84.165v-30h81.585zm45 15c-8.271 0-15-6.729-15-15s6.729-15 15-15 15 6.729 15 15-6.729 15-15 15zm15-57.42c-10-3.44-20-3.44-30 0v-81.192l30 16.417zm99.137-44.724-207.888-113.76 21.94-40.094 134.289 73.485 80.561-24.312 21.841 11.952zm62.941-51.785 14.401-26.317 62.302 34.093-14.401 26.317z"/><path d="m181.519 90.999h30v30h-30z" transform="matrix(.477 -.879 .879 .477 9.59 228.118)"/><path d="m234.054 119.526h30v30h-30z" transform="matrix(.477 -.879 .879 .477 11.986 289.199)"/></g></svg>